<svg width="51" height="56" viewBox="0 0 51 56" fill="none" xmlns="http://www.w3.org/2000/svg">
<path d="M4.80932 18.7114C5.54946 14.5854 7.43428 10.8449 10.2603 7.89435C11.0811 7.03745 11.0519 5.67749 10.1949 4.85678C9.3379 4.03576 7.97794 4.0653 7.15735 4.9222C3.74423 8.4856 1.46979 12.9915 0.580012 17.9528C0.37054 19.1207 1.14741 20.2373 2.31531 20.4468C2.44378 20.4697 2.57118 20.4809 2.69719 20.4809C3.71759 20.4809 4.62294 19.7509 4.80932 18.7114Z" fill="#00831D"/>
<path d="M46.9324 36.5717C46.8133 36.5251 45.1375 35.8497 43.9058 34.3005C43.1674 33.3717 41.8159 33.2176 40.8869 33.9559C39.9582 34.6944 39.8039 36.0459 40.5423 36.9748C41.6531 38.3716 42.9445 39.3007 43.9307 39.8714C43.7658 40.7967 43.4177 41.8308 42.8086 42.7085C41.852 44.0875 40.5008 44.7578 38.6781 44.7578H12.4694C9.14667 44.7578 7.66403 41.9738 7.23531 39.86C7.86942 39.493 8.63062 38.98 9.39353 38.2936C11.8266 36.1045 13.1128 33.2137 13.1128 29.9336V22.4141C13.1128 15.6345 18.6084 10.045 25.3635 9.95431C25.3822 9.95409 25.4004 9.95151 25.4189 9.95076C25.4348 9.95108 25.4503 9.95312 25.4663 9.95312C25.5229 9.95312 25.5786 9.94894 25.6341 9.94464C25.6838 9.94872 25.7334 9.95356 25.784 9.9542C32.5983 10.0457 38.1421 15.6352 38.1421 22.4141V25.4219C38.1421 26.6085 39.1039 27.5703 40.2905 27.5703C41.4771 27.5703 42.439 26.6085 42.439 25.4219V22.4141C42.439 13.8941 35.9359 6.77226 27.6147 5.77613V2.64844C27.6147 1.46186 26.6529 0.5 25.4663 0.5C24.2797 0.5 23.3179 1.46186 23.3179 2.64844V5.80288C19.6596 6.28854 16.2778 7.97194 13.6385 10.655C10.5287 13.8164 8.81592 17.9926 8.81592 22.4141V29.9336C8.81592 34.7313 4.49337 36.4653 4.21482 36.5718C3.35147 36.8721 2.80029 37.6765 2.80029 38.5912C2.80029 40.846 3.60359 43.3114 4.94905 45.1861C6.73967 47.6808 9.4106 49.0547 12.4694 49.0547H19.1284C19.1284 52.6086 22.0198 55.5 25.5737 55.5C29.1277 55.5 32.019 52.6086 32.019 49.0547H38.678C42.7753 49.0547 45.1056 46.9356 46.3389 45.1581C48.1514 42.5458 48.3471 39.6953 48.3471 38.5912C48.3472 37.676 47.7961 36.8718 46.9324 36.5717ZM25.5737 51.2031C24.3891 51.2031 23.4253 50.2393 23.4253 49.0547H27.7222C27.7222 50.2393 26.7585 51.2031 25.5737 51.2031Z" fill="#00831D"/>
<path d="M50.4193 18.0186C49.5211 13.0113 47.1598 8.31992 43.7703 4.80862C42.9462 3.95494 41.5862 3.93099 40.7325 4.75502C39.8788 5.57916 39.8548 6.93923 40.6788 7.79291C43.4833 10.6981 45.4405 14.5991 46.19 18.7772C46.3764 19.8169 47.2817 20.5467 48.3021 20.5467C48.428 20.5467 48.5558 20.5356 48.684 20.5126C49.8519 20.3032 50.6289 19.1865 50.4193 18.0186Z" fill="#00831D"/>
</svg>
